<svg width="58" height="30" viewBox="0 0 58 30" fill="none" xmlns="http://www.w3.org/2000/svg">
<path d="M29.9493 1C27.3873 1.34761 24.8151 2.12113 22.4197 3.0829C15.3917 5.90477 7.84956 10.3185 3.20595 16.5474C1.89583 18.3048 0.971007 19.8484 1.00069 22.1142C1.07311 27.6407 8.06993 28.5374 12.0879 28.8464C19.085 29.3846 28.6228 28.4311 35.4076 27.1851C41.7364 26.0227 50.0176 24.2467 55.2549 19.9073C59.7625 16.1726 54.4811 10.0048 51.2952 7.71984C47.0109 4.64699 41.8022 3.52297 36.6382 3.38046C34.2187 3.31369 32.2479 3.43483 29.864 3.72761C27.9664 3.96067 26.6519 4.50919 24.9052 5.01703" stroke="black" stroke-width="2" stroke-linecap="round"/>
</svg>
