<svg width="54" height="80" viewBox="0 0 54 80" fill="none" xmlns="http://www.w3.org/2000/svg">
<g clip-path="url(#clip0_27_62)">
<path d="M26.6666 40C26.6666 32.6357 32.6357 26.6666 40 26.6666C47.3642 26.6666 53.3333 32.6357 53.3333 40C53.3333 47.3642 47.3642 53.3333 40 53.3333C32.6357 53.3333 26.6666 47.3642 26.6666 40Z" fill="#1ABCFE"/>
<path d="M0 66.6667C0 59.3025 5.96912 53.3334 13.3333 53.3334H26.6667V66.6667C26.6667 74.0309 20.6975 80 13.3333 80C5.96912 80 0 74.0309 0 66.6667Z" fill="#0ACF83"/>
<path d="M26.6666 0V26.6667H40C47.3642 26.6667 53.3333 20.6975 53.3333 13.3333C53.3333 5.96912 47.3642 0 40 0H26.6666Z" fill="#FF7262"/>
<path d="M0 13.3333C0 20.6975 5.96912 26.6667 13.3333 26.6667H26.6667V0H13.3333C5.96912 0 0 5.96912 0 13.3333Z" fill="#F24E1E"/>
<path d="M0 40C0 47.3642 5.96912 53.3333 13.3333 53.3333H26.6667V26.6666H13.3333C5.96912 26.6666 0 32.6357 0 40Z" fill="#A259FF"/>
</g>
<defs>
<clipPath id="clip0_27_62">
<rect width="53.3333" height="80" fill="white"/>
</clipPath>
</defs>
</svg>
