<?xml version="1.0" encoding="UTF-8" standalone="no"?><svg xmlns="http://www.w3.org/2000/svg" xmlns:xlink="http://www.w3.org/1999/xlink"><symbol viewBox="0 0 20 20" id="github" xmlns="http://www.w3.org/2000/svg"><title>github [#142]</title><desc>Created with Sketch.</desc><defs/><g id="aPage-1" stroke-width="1" fill-rule="evenodd"><g id="aDribbble-Light-Preview" transform="translate(-140.000000, -7559.000000)"><g id="aicons" transform="translate(56.000000, 160.000000)"><path d="M94,7399 C99.523,7399 104,7403.59 104,7409.253 C104,7413.782 101.138,7417.624 97.167,7418.981 C96.66,7419.082 96.48,7418.762 96.48,7418.489 C96.48,7418.151 96.492,7417.047 96.492,7415.675 C96.492,7414.719 96.172,7414.095 95.813,7413.777 C98.04,7413.523 100.38,7412.656 100.38,7408.718 C100.38,7407.598 99.992,7406.684 99.35,7405.966 C99.454,7405.707 99.797,7404.664 99.252,7403.252 C99.252,7403.252 98.414,7402.977 96.505,7404.303 C95.706,7404.076 94.85,7403.962 94,7403.958 C93.15,7403.962 92.295,7404.076 91.497,7404.303 C89.586,7402.977 88.746,7403.252 88.746,7403.252 C88.203,7404.664 88.546,7405.707 88.649,7405.966 C88.01,7406.684 87.619,7407.598 87.619,7408.718 C87.619,7412.646 89.954,7413.526 92.175,7413.785 C91.889,7414.041 91.63,7414.493 91.54,7415.156 C90.97,7415.418 89.522,7415.871 88.63,7414.304 C88.63,7414.304 88.101,7413.319 87.097,7413.247 C87.097,7413.247 86.122,7413.234 87.029,7413.87 C87.029,7413.87 87.684,7414.185 88.139,7415.37 C88.139,7415.37 88.726,7417.2 91.508,7416.58 C91.513,7417.437 91.522,7418.245 91.522,7418.489 C91.522,7418.76 91.338,7419.077 90.839,7418.982 C86.865,7417.627 84,7413.783 84,7409.253 C84,7403.59 88.478,7399 94,7399" id="agithub-[#142]"/></g></g></g></symbol><symbol viewBox="0 0 15 15" id="mail" xmlns="http://www.w3.org/2000/svg"><path d="M7.515 0C11.775 0 15 3.49274 15 7.48873C15 12.1232 11.22 15 7.5 15C6.27 15 4.905 14.6695 3.81 14.0235C3.4275 13.7907 3.105 13.6179 2.6925 13.7531L1.1775 14.2038C0.795 14.324 0.45 14.0235 0.5625 13.6179L1.065 11.9354C1.1475 11.7026 1.1325 11.4547 1.0125 11.2594C0.3675 10.0726 0 8.77316 0 7.51127C0 3.56034 3.1575 0 7.515 0ZM10.9425 6.55734C10.41 6.55734 9.9825 6.98548 9.9825 7.51878C9.9825 8.04457 10.41 8.48022 10.9425 8.48022C11.475 8.48022 11.9025 8.04457 11.9025 7.51878C11.9025 6.98548 11.475 6.55734 10.9425 6.55734ZM7.485 6.55734C6.96 6.54982 6.525 6.98548 6.525 7.51127C6.525 8.04457 6.9525 8.47271 7.485 8.48022C8.0175 8.48022 8.445 8.04457 8.445 7.51878C8.445 6.98548 8.0175 6.55734 7.485 6.55734ZM4.0275 6.55734C3.495 6.55734 3.0675 6.98548 3.0675 7.51878C3.0675 8.04457 3.5025 8.48022 4.0275 8.48022C4.56 8.47271 4.9875 8.04457 4.9875 7.51878C4.9875 6.98548 4.56 6.55734 4.0275 6.55734Z"/></symbol><symbol viewBox="0 0 58 30" id="marker" xmlns="http://www.w3.org/2000/svg"><path d="M29.9493 1C27.3873 1.34761 24.8151 2.12113 22.4197 3.0829C15.3917 5.90477 7.84956 10.3185 3.20595 16.5474C1.89583 18.3048 0.971007 19.8484 1.00069 22.1142C1.07311 27.6407 8.06993 28.5374 12.0879 28.8464C19.085 29.3846 28.6228 28.4311 35.4076 27.1851C41.7364 26.0227 50.0176 24.2467 55.2549 19.9073C59.7625 16.1726 54.4811 10.0048 51.2952 7.71984C47.0109 4.64699 41.8022 3.52297 36.6382 3.38046C34.2187 3.31369 32.2479 3.43483 29.864 3.72761C27.9664 3.96067 26.6519 4.50919 24.9052 5.01703" stroke-width="2" stroke-linecap="round"/></symbol><symbol viewBox="0 0 15 15" id="tel" xmlns="http://www.w3.org/2000/svg"><path fill-rule="evenodd" clip-rule="evenodd" d="M7.13032 7.87294C10.2796 11.0213 10.994 7.37899 12.9992 9.38275C14.9323 11.3153 16.0434 11.7025 13.5941 14.1511C13.2873 14.3976 11.3381 17.3639 4.48784 10.5155C-2.36327 3.66632 0.601251 1.71509 0.847871 1.40838C3.30305 -1.04696 3.68358 0.0705654 5.6167 2.00315C7.62187 4.00776 3.98105 4.72454 7.13032 7.87294Z"/></symbol><symbol viewBox="0 0 754 754" id="telegram" xmlns="http://www.w3.org/2000/svg"><path d="M531.05 226C531.2 226 531.4 226 531.6 226C536.825 226 541.675 227.625 545.65 230.425L545.575 230.375C548.475 232.9 550.425 236.45 550.9 240.45V240.525C551.4 243.575 551.675 247.075 551.675 250.65C551.675 252.275 551.625 253.875 551.5 255.475V255.25C545.875 314.475 521.475 458.1 509.075 524.4C503.825 552.475 493.5 561.875 483.5 562.775C461.775 564.8 445.275 548.425 424.225 534.625C391.275 513 372.65 499.55 340.675 478.475C303.7 454.15 327.675 440.725 348.725 418.875C354.25 413.125 450.025 326 451.9 318.1C452 317.625 452.05 317.1 452.05 316.55C452.05 314.6 451.325 312.825 450.15 311.475C448.85 310.625 447.225 310.15 445.525 310.15C444.4 310.15 443.325 310.375 442.325 310.75L442.375 310.725C439.075 311.475 386.442 346.258 284.475 415.075C273.35 423.85 259.3 429.4 244 430.05H243.85C222.175 427.425 202.5 422.6 183.825 415.725L185.675 416.325C162.225 408.675 143.6 404.65 145.2 391.7C146.05 384.967 155.333 378.075 173.05 371.025C282.183 323.475 354.958 292.133 391.375 277C431.55 255.675 478.125 238.125 527.1 226.75L531.025 225.975L531.05 226ZM376.25 0.625C168.7 1.125 0.625 169.5 0.625 377.125C0.625 585.05 169.175 753.625 377.125 753.625C585.075 753.625 753.625 585.075 753.625 377.125C753.625 169.5 585.55 1.125 378.05 0.625H378C377.417 0.625 376.833 0.625 376.25 0.625Z"/></symbol></svg>