<svg width="113" height="80" viewBox="0 0 113 80" fill="none" xmlns="http://www.w3.org/2000/svg">
<g clip-path="url(#clip0_27_44)">
<path d="M27.8117 74.1154H23.4801C23.3269 66.8039 22.905 59.9302 22.2153 53.4892H22.1768L15.5818 74.1154H12.2839L5.72825 53.4892H5.69058C5.20426 59.6732 4.89791 66.5486 4.77068 74.1154H0.822388C1.07685 64.9139 1.71634 56.2874 2.73836 48.2351H8.1071L14.3556 67.2517H14.3941L20.681 48.2351H25.8179C26.9429 57.6668 27.6075 66.2941 27.8117 74.1154ZM46.5973 55.0209C44.8337 64.5916 42.5067 71.5457 39.6189 75.8865C37.369 79.228 34.9039 80.9004 32.2196 80.9004C31.5039 80.9004 30.6208 80.6844 29.5745 80.2559V77.9482C30.086 78.0218 30.6861 78.0637 31.3758 78.0637C32.6297 78.0637 33.6375 77.7188 34.4059 77.0274C35.3249 76.1854 35.7845 75.2387 35.7845 74.1916C35.7845 73.4734 35.4262 72.0052 34.7114 69.7821L29.9579 55.0201H34.2134L37.6251 66.0606C38.3918 68.5675 38.7116 70.3178 38.5835 71.3147C40.4493 66.3318 41.7525 60.8986 42.495 55.0193H46.5973V55.0209Z" fill="#5D87A1"/>
<path d="M104.256 74.1154H91.952V48.2351H96.0911V70.9297H104.256V74.1154ZM88.7311 74.7407L83.9734 72.3928C84.3952 72.0463 84.7987 71.6713 85.162 71.2368C87.1842 68.8613 88.1929 65.3483 88.1929 60.6952C88.1929 52.1332 84.833 47.8501 78.1108 47.8501C74.8145 47.8501 72.2432 48.9366 70.4042 51.1103C68.3836 53.4875 67.375 56.988 67.375 61.616C67.375 66.1653 68.2689 69.5025 70.0577 71.6194C71.6941 73.537 74.1608 74.4971 77.4596 74.4971C78.69 74.4971 79.8192 74.3464 80.8479 74.0426L87.0419 77.6485L88.7311 74.7407ZM73.3187 68.9367C72.2708 67.2509 71.7468 64.5439 71.7468 60.8116C71.7468 54.2953 73.7264 51.0333 77.6897 51.0333C79.7614 51.0333 81.2798 51.8135 82.2507 53.3703C83.297 55.0586 83.8235 57.7413 83.8235 61.4218C83.8235 67.9917 81.8423 71.277 77.8814 71.277C75.8089 71.2779 74.2905 70.5003 73.3187 68.9367ZM65.5712 66.942C65.5712 69.1367 64.7659 70.9372 63.1571 72.3476C61.5467 73.7521 59.3871 74.4561 56.681 74.4561C54.1498 74.4561 51.6956 73.6475 49.3201 72.0387L50.4326 69.8164C52.4766 70.8401 54.3273 71.349 55.9888 71.349C57.5482 71.349 58.7669 71.0033 59.6508 70.3178C60.5339 69.6297 61.0604 68.6646 61.0604 67.4442C61.0604 65.9066 59.9881 64.5925 58.0211 63.4918C56.2072 62.4957 52.5795 60.4131 52.5795 60.4131C50.6133 58.9801 49.629 57.4417 49.629 54.9071C49.629 52.8095 50.3631 51.1162 51.8321 49.828C53.3027 48.5348 55.2003 47.8903 57.5264 47.8903C59.9287 47.8903 62.1125 48.534 64.0796 49.8079L63.0818 52.0311C61.3994 51.3163 59.7387 50.9588 58.1006 50.9588C56.7739 50.9588 55.7494 51.2778 55.0371 51.9181C54.3189 52.5559 53.8761 53.372 53.8761 54.3731C53.8761 55.9032 54.971 57.2341 56.9916 58.3566C58.8297 59.3543 62.5478 61.4728 62.5478 61.4728C64.5642 62.9033 65.5712 64.4276 65.5712 66.942Z" fill="#F8981D"/>
<path d="M109.453 39.5669C106.95 39.5033 105.012 39.7553 103.386 40.4433C102.916 40.6308 102.17 40.6308 102.104 41.2243C102.358 41.4754 102.387 41.8805 102.607 42.227C102.982 42.8523 103.636 43.6935 104.233 44.1321C104.888 44.6343 105.546 45.1315 106.236 45.5693C107.452 46.3218 108.831 46.7596 110.016 47.5095C110.707 47.9456 111.393 48.5098 112.084 48.9794C112.424 49.2297 112.642 49.6356 113.083 49.7921V49.6967C112.862 49.4155 112.799 49.0087 112.582 48.6956L111.643 47.79C110.736 46.5712 109.608 45.5074 108.392 44.6335C107.391 43.9438 105.201 43.0063 104.795 41.8529L104.732 41.7893C105.42 41.7248 106.236 41.4754 106.89 41.2837C107.954 41.0033 108.924 41.0669 110.015 40.7865C110.517 40.6609 111.015 40.5036 111.519 40.3487V40.0666C110.954 39.5033 110.55 38.755 109.955 38.2227C108.363 36.8474 106.608 35.5023 104.795 34.3765C103.825 33.7495 102.576 33.3461 101.542 32.8129C101.169 32.6246 100.542 32.5317 100.322 32.2186C99.7615 31.5306 99.446 30.6249 99.0392 29.8105C98.1352 28.092 97.2571 26.1853 96.477 24.3681C95.9129 23.1493 95.5697 21.9323 94.8816 20.8048C91.659 15.4896 88.1594 12.2704 82.7806 9.11059C81.6247 8.45268 80.2494 8.17227 78.7804 7.82741L76.4342 7.70353C75.9337 7.48423 75.4323 6.8891 74.9954 6.60785C73.2108 5.48288 68.6163 3.0446 67.3039 6.26383C66.4585 8.29866 68.5544 10.2992 69.2742 11.3312C69.8058 12.0477 70.4946 12.863 70.8663 13.6766C71.0864 14.2081 71.1484 14.7723 71.3685 15.3339C71.869 16.71 72.3369 18.241 72.9949 19.525C73.338 20.1795 73.7122 20.8676 74.1508 21.4602C74.4019 21.8067 74.8388 21.9599 74.9343 22.5249C74.4982 23.1477 74.4638 24.0876 74.2136 24.8694C73.0886 28.4026 73.528 32.7794 75.1226 35.3759C75.6215 36.1577 76.8117 37.8786 78.4038 37.219C79.8133 36.6566 79.5011 34.8745 79.9062 33.3118C79.9992 32.9343 79.9381 32.6865 80.1256 32.4387V32.4998C80.5616 33.3745 81.0019 34.2174 81.4062 35.0946C82.3763 36.6256 84.0655 38.221 85.4725 39.2815C86.2217 39.8473 86.8151 40.8149 87.7534 41.1606V41.0669H87.6915C87.5015 40.7865 87.2236 40.6609 86.9742 40.4433C86.41 39.88 85.7856 39.1919 85.3478 38.5675C84.037 36.8156 82.8769 34.8762 81.8473 32.8748C81.3434 31.9039 80.909 30.8425 80.5031 29.8732C80.3139 29.4991 80.3139 28.9349 80 28.7466C79.5296 29.4338 78.8441 30.0289 78.5009 30.871C77.9057 32.2178 77.8438 33.8743 77.6228 35.5969L77.4998 35.6571C76.5037 35.4069 76.1572 34.3765 75.7788 33.5018C74.8422 31.2803 74.6848 27.7145 75.4976 25.1515C75.7152 24.4961 76.6569 22.432 76.2811 21.8076C76.0927 21.2091 75.4666 20.8684 75.1234 20.3972C74.72 19.8045 74.278 19.0546 73.9968 18.3966C73.2468 16.6464 72.8693 14.707 72.0616 12.9576C71.6841 12.1423 71.0287 11.2986 70.498 10.5478C69.902 9.70404 69.2466 9.10975 68.7754 8.10949C68.6197 7.76547 68.4012 7.20298 68.6515 6.82883C68.7126 6.57772 68.8398 6.48397 69.0892 6.42119C69.4944 6.07885 70.652 6.5141 71.058 6.70244C72.2173 7.17118 73.1865 7.60895 74.1541 8.26518C74.5919 8.57907 75.0615 9.17336 75.6231 9.32989H76.2811C77.2796 9.54752 78.4054 9.39016 79.3454 9.67308C81.0019 10.2054 82.5027 10.9864 83.8487 11.8293C87.9443 14.4266 91.3217 18.1171 93.6018 22.5249C93.976 23.2431 94.135 23.901 94.4765 24.6501C95.1353 26.1836 95.9497 27.7472 96.6034 29.248C97.2605 30.717 97.8866 32.2169 98.8249 33.4373C99.2928 34.0936 101.173 34.4376 102.016 34.7816C102.639 35.062 103.61 35.3114 104.173 35.6555C105.237 36.3109 106.296 37.0634 107.297 37.784C107.795 38.159 109.36 38.9408 109.453 39.5669ZM77.5567 12.3934C77.125 12.389 76.6946 12.4419 76.2769 12.5508V12.6136H76.3371C76.5891 13.1133 77.0268 13.4598 77.3391 13.8959C77.591 14.3973 77.8095 14.8945 78.0564 15.395L78.1167 15.3331C78.5578 15.0209 78.7771 14.5203 78.7771 13.7695C78.5871 13.5485 78.5578 13.3326 78.3996 13.1133C78.2154 12.8002 77.8095 12.6445 77.5567 12.3934Z" fill="#5D87A1"/>
<path d="M112.431 74.1112H113.079V70.9405H112.107L111.314 73.1043L110.453 70.9405H109.517V74.1112H110.129V71.6989H110.163L111.066 74.1112H111.532L112.431 71.6989V74.1112ZM107.212 74.1112H107.898V71.4779H108.795V70.9397H106.277V71.4779H107.21L107.212 74.1112Z" fill="#F8981D"/>
</g>
<defs>
<clipPath id="clip0_27_44">
<rect width="112" height="80" fill="white" transform="translate(0.835144)"/>
</clipPath>
</defs>
</svg>
