<svg width="108" height="80" viewBox="0 0 108 80" fill="none" xmlns="http://www.w3.org/2000/svg">
<g clip-path="url(#clip0_27_42)">
<path d="M92.8736 46.0461C89.4917 46.0506 86.155 46.8239 83.1159 48.3077C82.1644 46.7286 81.4296 45.0288 80.9313 43.2538C80.645 41.8625 80.5788 40.4349 80.7351 39.023C81.0639 37.4695 81.4904 35.9382 82.0121 34.4384C81.9928 34.2423 81.7774 33.3153 79.6121 33.2846C77.4467 33.2538 75.5813 33.6961 75.3813 34.2692C75.0052 35.3159 74.7032 36.3878 74.4774 37.4769C72.6853 41.8981 70.4794 46.14 67.889 50.1461C66.4377 47.7669 65.8408 44.9641 66.1967 42.2C66.5254 40.6464 66.9519 39.1152 67.4736 37.6154C67.4544 37.4192 67.239 36.4923 65.0736 36.4615C62.9082 36.4307 61.0428 36.873 60.8428 37.4461C60.6428 38.0192 60.389 39.3692 59.939 40.6538C59.489 41.9384 54.2351 53.6769 52.8582 56.7038C52.1505 58.2423 51.539 59.4961 51.1082 60.3423C51.0878 60.3972 51.062 60.45 51.0313 60.5C50.6467 61.2269 50.4428 61.623 50.4428 61.623V61.6423C50.1467 62.173 49.8313 62.6654 49.6736 62.6654C49.3985 61.5665 49.4118 60.4153 49.7121 59.323C50.4813 55.25 52.3659 48.9192 52.3467 48.7C52.3467 48.5807 52.7005 47.4807 51.1274 46.9115C50.7626 46.7379 50.3529 46.6816 49.9548 46.7505C49.5567 46.8194 49.1897 47.01 48.9044 47.2961C48.7659 47.2961 48.6698 47.6307 48.6698 47.6307C48.6698 47.6307 50.3813 40.5115 45.4044 40.5115C43.4663 40.9014 41.6257 41.6749 39.9909 42.7865C38.3561 43.8981 36.9602 45.3255 35.8851 46.9846C34.5467 47.7115 31.6967 49.2654 28.6467 50.9384C27.4928 51.5884 26.2851 52.2384 25.1659 52.8615C25.089 52.7846 25.0082 52.6846 24.9313 52.6077C18.8736 46.1538 7.73898 41.6 8.21975 32.9653C8.39667 29.8192 9.47745 21.5577 29.6005 11.523C46.1621 3.3615 59.3428 5.62304 61.6236 10.6384C64.889 17.8 54.5621 31.0961 37.4505 33.023C35.5575 33.4071 33.6023 33.3608 31.7296 32.8874C29.8569 32.4141 28.1145 31.5259 26.6313 30.2884C25.7274 29.3038 25.589 29.2461 25.2544 29.4423C24.7044 29.7384 25.0582 30.623 25.2544 31.1346C25.9072 32.3159 26.7901 33.3545 27.851 34.1888C28.912 35.0231 30.1294 35.6364 31.4313 35.9923C38.163 37.447 45.1815 36.7514 51.4967 34.0038C61.8813 29.9923 69.9582 18.8384 67.589 9.49612C65.2082 0.0153472 49.4736 -3.11158 34.5813 2.18842C25.2534 5.32717 16.6345 10.2711 9.21591 16.7384C1.01206 24.4115 -0.284094 31.0769 0.246675 33.873C2.16975 43.7884 15.8274 50.2384 21.2928 55.0269C21.0159 55.1846 20.7621 55.323 20.5467 55.4384C17.8121 56.7961 7.38898 62.2461 4.77744 68.0077C1.82744 74.5461 5.25052 79.2192 7.51206 79.85C10.9198 80.6657 14.4972 80.397 17.7448 79.0814C20.9924 77.7658 23.7482 75.4689 25.6274 72.5115C27.2277 70.0585 28.2113 67.255 28.4946 64.3399C28.7779 61.4248 28.3524 58.4844 27.2544 55.7692C27.2358 55.7253 27.2098 55.685 27.1774 55.65L29.3198 54.3923C30.7159 53.5654 32.0928 52.8 33.2736 52.1692C32.4729 54.4786 32.0029 56.8897 31.8774 59.3307C31.6056 63.0722 32.7506 66.779 35.0851 69.7154C35.4404 70.0211 35.8528 70.2534 36.2984 70.3986C36.744 70.5439 37.2141 70.5992 37.6813 70.5615C39.989 70.5615 41.0467 68.6384 42.2044 66.3538C43.6198 63.5615 44.8967 60.3153 44.8967 60.3153C44.8967 60.3153 43.3044 69.0884 47.6313 69.0884C49.2044 69.0884 50.7967 67.0423 51.5082 66.0115V66.0307C51.5082 66.0307 51.5467 65.973 51.6274 65.8346L51.8813 65.423V65.3846C52.5121 64.2846 53.9274 61.7846 56.0313 57.6346C58.7467 52.2846 61.3621 45.5961 61.3621 45.5961C61.6143 47.066 61.9625 48.5178 62.4044 49.9423C63.0378 51.6689 63.787 53.351 64.6467 54.9769C64.0159 55.8615 63.6236 56.3538 63.6236 56.3538L63.6428 56.373C63.1313 57.0423 62.5813 57.7692 61.9698 58.4769C60.1503 60.4772 58.4621 62.5932 56.9159 64.8115C56.6862 65.1841 56.6072 65.6303 56.6951 66.0591C56.783 66.4879 57.0312 66.8671 57.389 67.1192C58.1986 67.5405 59.1215 67.6927 60.0236 67.5538C61.383 67.4771 62.7197 67.1715 63.9774 66.65C65.1929 66.2222 66.3395 65.6198 67.3813 64.8615C68.4553 64.1175 69.3197 63.1096 69.8916 61.9349C70.4635 60.7602 70.7235 59.4581 70.6467 58.1538C70.5257 56.5109 70.106 54.9038 69.4082 53.4115C69.6044 53.1346 69.7928 52.8615 69.9774 52.5846C72.1641 49.3207 74.135 45.9173 75.8774 42.3961C76.1297 43.866 76.4779 45.3178 76.9197 46.7423C77.4422 48.2344 78.0854 49.6815 78.8428 51.0692C76.3272 53.0046 74.3458 55.5486 73.0851 58.4615C71.8467 62.0423 72.8082 63.6538 74.6236 64.0269C75.617 64.0954 76.6102 63.8919 77.4967 63.4384C78.8 63.0101 80.0279 62.3793 81.1351 61.5692C82.3027 60.8802 83.2805 59.9117 83.9808 58.7508C84.681 57.59 85.0817 56.2733 85.1467 54.9192C85.0594 53.5675 84.7541 52.2389 84.2428 50.9846C87.5624 49.6877 91.1618 49.2742 94.689 49.7846C104.051 50.8846 105.901 56.7269 105.547 59.1884C105.381 60.0611 105.03 60.8881 104.518 61.6138C104.006 62.3396 103.344 62.9473 102.577 63.3961C101.927 63.8077 101.712 63.9461 101.77 64.2423C101.847 64.6769 102.154 64.6538 102.712 64.5769C104.123 64.1384 105.368 63.2824 106.282 62.122C107.197 60.9616 107.738 59.5512 107.835 58.0769C108.131 52.3077 102.624 45.9807 92.8851 46.0384L92.8736 46.0461ZM20.6428 70.3846C17.5351 73.7692 13.2082 75.0461 11.339 73.9654C9.33129 72.8115 10.1198 67.8115 13.9351 64.2269C16.1984 62.1895 18.6446 60.3652 21.2428 58.7769C21.6967 58.5 22.3659 58.1077 23.1659 57.623L23.3813 57.5038L23.8544 57.2077C24.536 59.4915 24.5978 61.9155 24.0334 64.2311C23.4691 66.5467 22.2989 68.6705 20.6428 70.3846ZM43.2621 55C42.1813 57.6346 39.9198 64.3846 38.5428 64.0077C37.3621 63.6923 36.6198 58.5769 38.3082 53.523C39.1607 51.0902 40.4025 48.8118 41.9851 46.7769C43.6774 44.8884 45.5467 44.2577 45.9967 45.0269C45.5861 48.4687 44.6644 51.8301 43.2621 55ZM61.9274 63.9307C61.4736 64.1654 61.0428 64.3154 60.8467 64.2077C60.7082 64.1307 61.0428 63.823 61.0428 63.823C61.0428 63.823 63.3851 61.3038 64.3082 60.1654C64.839 59.4961 65.4621 58.7115 66.139 57.823V58.0769C66.139 61.0846 63.2274 63.1115 61.9313 63.9384L61.9274 63.9307ZM76.3274 60.6461C75.9928 60.4115 76.0505 59.623 77.1736 57.1653C77.9545 55.5869 79.0454 54.182 80.3813 53.0346C80.5861 53.6168 80.6926 54.229 80.6967 54.8461C80.7118 56.1597 80.2918 57.4414 79.5021 58.4913C78.7125 59.5412 77.5976 60.3002 76.3313 60.65L76.3274 60.6461Z" fill="#CD6799"/>
</g>
<defs>
<clipPath id="clip0_27_42">
<rect width="107.692" height="80" fill="white" transform="translate(0.142822)"/>
</clipPath>
</defs>
</svg>
