<?xml version="1.0" encoding="UTF-8" standalone="no"?><svg viewBox="0 0 800 800" xmlns="http://www.w3.org/2000/svg" xmlns:xlink="http://www.w3.org/1999/xlink"><style>:root>svg{display:none}:root>svg:target{display:block}</style><svg viewBox="0 0 20 20" id="github" xmlns="http://www.w3.org/2000/svg"><path d="M10 0c5.523 0 10 4.59 10 10.253 0 4.529-2.862 8.371-6.833 9.728-.507.101-.687-.219-.687-.492 0-.338.012-1.442.012-2.814 0-.956-.32-1.58-.679-1.898 2.227-.254 4.567-1.121 4.567-5.059 0-1.12-.388-2.034-1.03-2.752.104-.259.447-1.302-.098-2.714 0 0-.838-.275-2.747 1.051A9.396 9.396 0 0 0 10 4.958a9.375 9.375 0 0 0-2.503.345C5.586 3.977 4.746 4.252 4.746 4.252c-.543 1.412-.2 2.455-.097 2.714-.639.718-1.03 1.632-1.03 2.752 0 3.928 2.335 4.808 4.556 5.067-.286.256-.545.708-.635 1.371-.57.262-2.018.715-2.91-.852 0 0-.529-.985-1.533-1.057 0 0-.975-.013-.068.623 0 0 .655.315 1.11 1.5 0 0 .587 1.83 3.369 1.21.005.857.014 1.665.014 1.909 0 .271-.184.588-.683.493C2.865 18.627 0 14.783 0 10.253 0 4.59 4.478 0 10 0" fill="#000" fill-rule="evenodd"/></svg><svg fill="none" viewBox="0 0 15 15" id="mail" xmlns="http://www.w3.org/2000/svg"><path d="M7.515 0C11.775 0 15 3.493 15 7.489 15 12.123 11.22 15 7.5 15c-1.23 0-2.595-.33-3.69-.976-.382-.233-.705-.406-1.118-.27l-1.515.45c-.382.12-.727-.18-.615-.586l.503-1.683a.786.786 0 0 0-.052-.676C.367 10.073 0 8.773 0 7.511 0 3.561 3.158 0 7.515 0Zm3.428 6.557a.963.963 0 0 0 0 1.923.963.963 0 0 0 0-1.923Zm-3.458 0a.956.956 0 0 0-.96.954c0 .534.427.962.96.97a.963.963 0 0 0 0-1.924Zm-3.458 0a.958.958 0 0 0-.96.962c0 .526.435.961.96.961a.967.967 0 0 0 .96-.961.958.958 0 0 0-.96-.962Z" fill="#D38B97"/></svg><svg fill="none" viewBox="0 0 58 30" id="marker" xmlns="http://www.w3.org/2000/svg"><path d="M29.95 1c-2.563.348-5.135 1.121-7.53 2.083-7.028 2.822-14.57 7.236-19.214 13.464-1.31 1.758-2.235 3.301-2.205 5.567.072 5.527 7.069 6.423 11.087 6.732 6.997.539 16.535-.415 23.32-1.66 6.328-1.163 14.61-2.94 19.847-7.279 4.508-3.734-.774-9.902-3.96-12.187-4.284-3.073-9.493-4.197-14.657-4.34-2.42-.066-4.39.055-6.774.348-1.898.233-3.212.781-4.959 1.289" stroke="#000" stroke-width="2" stroke-linecap="round"/></svg><svg fill="none" viewBox="0 0 15 15" id="tel" xmlns="http://www.w3.org/2000/svg"><path fill-rule="evenodd" clip-rule="evenodd" d="M7.13 7.873c3.15 3.148 3.864-.494 5.87 1.51 1.932 1.932 3.043 2.32.594 4.768-.307.247-2.256 3.213-9.106-3.636C-2.363 3.666.6 1.715.848 1.409c2.455-2.455 2.836-1.337 4.769.595C7.622 4.008 3.98 4.725 7.13 7.873Z" fill="#D38B97"/></svg><svg fill="none" viewBox="0 0 754 754" id="telegram" xmlns="http://www.w3.org/2000/svg"><path d="M531.05 226h.55c5.225 0 10.075 1.625 14.05 4.425l-.075-.05a15.808 15.808 0 0 1 5.325 10.075v.075c.5 3.05.775 6.55.775 10.125 0 1.625-.05 3.225-.175 4.825v-.225c-5.625 59.225-30.025 202.85-42.425 269.15-5.25 28.075-15.575 37.475-25.575 38.375-21.725 2.025-38.225-14.35-59.275-28.15-32.95-21.625-51.575-35.075-83.55-56.15-36.975-24.325-13-37.75 8.05-59.6C354.25 413.125 450.025 326 451.9 318.1c.1-.475.15-1 .15-1.55a7.71 7.71 0 0 0-1.9-5.075c-1.3-.85-2.925-1.325-4.625-1.325-1.125 0-2.2.225-3.2.6l.05-.025c-3.3.75-55.933 35.533-157.9 104.35A70.134 70.134 0 0 1 244 430.05h-.15c-21.675-2.625-41.35-7.45-60.025-14.325l1.85.6c-23.45-7.65-42.075-11.675-40.475-24.625.85-6.733 10.133-13.625 27.85-20.675 109.133-47.55 181.908-78.892 218.325-94.025 40.175-21.325 86.75-38.875 135.725-50.25l3.925-.775.025.025ZM376.25.625C168.7 1.125.625 169.5.625 377.125c0 207.925 168.55 376.5 376.5 376.5s376.5-168.55 376.5-376.5c0-207.625-168.075-376-375.575-376.5h-1.8Z" fill="#000"/></svg></svg>